<svg xmlns="http://www.w3.org/2000/svg"><symbol id="trumbowyg-blockquote" viewBox="0 0 72 72">
<path d="M21.3 31.9h-.6c.8-1.2 1.9-2.2 3.4-3.2 2.1-1.4 5-2.7 9.2-3.3l-1.4-8.9c-4.7.7-8.5 2.1-11.7 4-2.4 1.4-4.3 3.1-5.8 4.9-2.3 2.7-3.7 5.7-4.5 8.5-.8 2.8-1 5.4-1 7.5 0 2.3.3 4 .4 4.8 0 .1.1.3.1.4 1.2 5.4 6.1 9.5 11.9 9.5 6.7 0 12.2-5.4 12.2-12.2s-5.5-12-12.2-12zM49.5 31.9h-.6c.8-1.2 1.9-2.2 3.4-3.2 2.1-1.4 5-2.7 9.2-3.3l-1.4-8.9c-4.7.7-8.5 2.1-11.7 4-2.4 1.4-4.3 3.1-5.8 4.9-2.3 2.7-3.7 5.7-4.5 8.5-.8 2.8-1 5.4-1 7.5 0 2.3.3 4 .4 4.8 0 .1.1.3.1.4 1.2 5.4 6.1 9.5 11.9 9.5 6.7 0 12.2-5.4 12.2-12.2s-5.5-12-12.2-12z"/></symbol><symbol id="trumbowyg-bold" viewBox="0 0 72 72"><path d="M51.1 37.8c-1.1-1.4-2.5-2.5-4.2-3.3 1.2-.8 2.1-1.8 2.8-3 1-1.6 1.5-3.5 1.5-5.3 0-2-.6-4-1.7-5.8-1.1-1.8-2.8-3.2-4.8-4.1-2-.9-4.6-1.3-7.8-1.3h-16v42h16.3c2.6 0 4.8-.2 6.7-.7 1.9-.5 3.4-1.2 4.7-2.1 1.3-1 2.4-2.4 3.2-4.1.9-1.7 1.3-3.6 1.3-5.7.2-2.5-.5-4.7-2-6.6zM40.8 50.2c-.6.1-1.8.2-3.4.2h-9V38.5h8.3c2.5 0 4.4.2 5.6.6 1.2.4 2 1 2.7 2 .6.9 1 2 1 3.3 0 1.1-.2 2.1-.7 2.9-.5.9-1 1.5-1.7 1.9-.8.4-1.7.8-2.8 1zm2.6-20.4c-.5.7-1.3 1.3-2.5 1.6-.8.3-2.5.4-4.8.4h-7.7V21.6h7.1c1.4 0 2.6 0 3.6.1s1.7.2 2.2.4c1 .3 1.7.8 2.2 1.7.5.9.8 1.8.8 3-.1 1.3-.4 2.2-.9 3z"/></symbol><symbol id="trumbowyg-close" viewBox="0 0 72 72"><path d="M57 20.5l-5.4-5.4-15.5 15.5-15.6-15.5-5.4 5.4L30.7 36 15.1 51.5l5.4 5.4 15.6-15.5 15.5 15.5 5.4-5.4L41.5 36z"/></symbol><symbol id="trumbowyg-create-link" viewBox="0 0 72 72"><path d="M31.1 48.9l-6.7 6.7c-.8.8-1.6.9-2.1.9s-1.4-.1-2.1-.9L15 50.4c-1.1-1.1-1.1-3.1 0-4.2l6.1-6.1.2-.2 6.5-6.5c-1.2-.6-2.5-.9-3.8-.9-2.3 0-4.6.9-6.3 2.6L11 41.8c-3.5 3.5-3.5 9.2 0 12.7l5.2 5.2c1.7 1.7 4 2.6 6.3 2.6s4.6-.9 6.3-2.6l6.7-6.7c2.5-2.6 3.1-6.7 1.5-10l-5.9 5.9zM38.7 22.5l6.7-6.7c.8-.8 1.6-.9 2.1-.9s1.4.1 2.1.9l5.2 5.2c1.1 1.1 1.1 3.1 0 4.2l-6.1 6.1-.2.2L42 38c1.2.6 2.5.9 3.8.9 2.3 0 4.6-.9 6.3-2.6l6.7-6.7c3.5-3.5 3.5-9.2 0-12.7l-5.2-5.2c-1.7-1.7-4-2.6-6.3-2.6s-4.6.9-6.3 2.6l-6.7 6.7c-2.7 2.7-3.3 6.9-1.7 10.2l6.1-6.1c0 .1 0 .1 0 0z"/><path d="M44.2 30.5c.2-.2.4-.6.4-.9 0-.3-.1-.6-.4-.9l-2.3-2.3c-.3-.2-.6-.4-.9-.4-.3 0-.6.1-.9.4L25.9 40.6c-.2.2-.4.6-.4.9 0 .3.1.6.4.9l2.3 2.3c.2.2.6.4.9.4.3 0 .6-.1.9-.4l14.2-14.2zM49.9 55.4h-8.5v-5h8.5v-8.9h5.2v8.9h8.5v5h-8.5v8.9h-5.2v-8.9z"/></symbol><symbol id="trumbowyg-del" viewBox="0 0 72 72"><path d="M45.8 45c0 1-.3 1.9-.9 2.8-.6.9-1.6 1.6-3 2.1s-3.1.8-5 .8c-2.1 0-4-.4-5.7-1.1-1.7-.7-2.9-1.7-3.6-2.7-.8-1.1-1.3-2.6-1.5-4.5l-.1-.8-6.7.6v.9c.1 2.8.9 5.4 2.3 7.6 1.5 2.3 3.5 4 6.1 5.1 2.6 1.1 5.7 1.6 9.4 1.6 2.9 0 5.6-.5 8-1.6 2.4-1.1 4.3-2.7 5.6-4.7 1.3-2 2-4.2 2-6.5 0-1.6-.3-3.1-.9-4.5l-.2-.6H44c0 .1 1.8 2.3 1.8 5.5zM29 28.9c-.8-.8-1.2-1.7-1.2-2.9 0-.7.1-1.3.4-1.9.3-.6.7-1.1 1.4-1.6.6-.5 1.4-.9 2.5-1.1 1.1-.3 2.4-.4 3.9-.4 2.9 0 5 .6 6.3 1.7 1.3 1.1 2.1 2.7 2.4 5.1l.1.9 6.8-.5v-.9c-.1-2.5-.8-4.7-2.1-6.7s-3.2-3.5-5.6-4.5c-2.4-1-5.1-1.5-8.1-1.5-2.8 0-5.3.5-7.6 1.4-2.3 1-4.2 2.4-5.4 4.3-1.2 1.9-1.9 3.9-1.9 6.1 0 1.7.4 3.4 1.2 4.9l.3.5h11.8c-2.3-.9-3.9-1.7-5.2-2.9zm13.3-6.2zM22.7 20.3zM13 34.1h46.1v3.4H13z"/></symbol><symbol id="trumbowyg-em" viewBox="0 0 72 72"><path d="M26 57l10.1-42h7.2L33.2 57H26z"/></symbol><symbol id="trumbowyg-fullscreen" viewBox="0 0 72 72"><path d="M25.2 7.1H7.1v17.7l6.7-6.5 10.5 10.5 4.5-4.5-10.4-10.5zM47.2 7.1l6.5 6.7-10.5 10.5 4.5 4.5 10.5-10.4 6.7 6.8V7.1zM47.7 43.2l-4.5 4.5 10.4 10.5-6.8 6.7h18.1V47.2l-6.7 6.5zM24.3 43.2L13.8 53.6l-6.7-6.8v18.1h17.7l-6.5-6.7 10.5-10.5z"/><path fill="currentColor" d="M10.7 28.8h18.1V11.2l-6.6 6.4L11.6 7.1l-4.5 4.5 10.5 10.5zM60.8 28.8l-6.4-6.6 10.5-10.6-4.5-4.5-10.5 10.5-6.7-6.9v18.1zM60.4 64.9l4.5-4.5-10.5-10.5 6.9-6.7H43.2v17.6l6.6-6.4zM11.6 64.9l10.5-10.5 6.7 6.9V43.2H11.1l6.5 6.6L7.1 60.4z"/></symbol><symbol id="trumbowyg-h1" viewBox="0 0 72 72"><path d="M6.4 14.9h7.4v16.7h19.1V14.9h7.4V57h-7.4V38H13.8v19H6.4V14.9zM47.8 22.5c1.4 0 2.8-.1 4.1-.4 1.3-.2 2.5-.6 3.6-1.2 1.1-.5 2-1.3 2.8-2.1.8-.9 1.3-1.9 1.5-3.2h5.5v41.2h-7.4v-29H47.8v-5.3z"/></symbol><symbol id="trumbowyg-h2" viewBox="0 0 72 72"><path d="M1.5 14.9h7.4v16.7H28V14.9h7.4V57H28V38H8.8v19H1.5V14.9zM70.2 56.9H42c0-3.4.9-6.4 2.5-9s3.8-4.8 6.6-6.7c1.3-1 2.7-1.9 4.2-2.9 1.5-.9 2.8-1.9 4-3 1.2-1.1 2.2-2.2 3-3.4.8-1.2 1.2-2.7 1.2-4.3 0-.7-.1-1.5-.3-2.4s-.5-1.6-1-2.4c-.5-.7-1.2-1.3-2.1-1.8-.9-.5-2.1-.7-3.5-.7-1.3 0-2.4.3-3.3.8s-1.6 1.3-2.1 2.2-.9 2-1.2 3.3c-.3 1.3-.4 2.6-.4 4.1h-6.7c0-2.3.3-4.4.9-6.3.6-1.9 1.5-3.6 2.7-5 1.2-1.4 2.7-2.5 4.4-3.3 1.7-.8 3.8-1.2 6.1-1.2 2.5 0 4.6.4 6.3 1.2 1.7.8 3.1 1.9 4.1 3.1 1 1.3 1.8 2.6 2.2 4.1.4 1.5.6 2.9.6 4.2 0 1.6-.3 3.1-.8 4.5-.5 1.3-1.2 2.6-2.1 3.7-.9 1.1-1.8 2.2-2.9 3.1-1.1.9-2.2 1.8-3.4 2.7-1.2.8-2.4 1.6-3.5 2.4-1.2.7-2.3 1.5-3.3 2.2-1 .7-1.9 1.5-2.6 2.3-.7.8-1.3 1.7-1.5 2.6h20.1v5.9z"/></symbol><symbol id="trumbowyg-h3" viewBox="0 0 72 72"><path d="M1.4 14.5h7.4v16.7h19.1V14.5h7.4v42.1h-7.4v-19H8.8v19H1.4V14.5zM53.1 32.4c1.1 0 2.2 0 3.3-.2 1.1-.2 2.1-.5 2.9-1 .9-.5 1.6-1.2 2.1-2 .5-.9.8-1.9.8-3.2 0-1.8-.6-3.2-1.8-4.2-1.2-1.1-2.7-1.6-4.6-1.6-1.2 0-2.2.2-3.1.7-.9.5-1.6 1.1-2.2 1.9-.6.8-1 1.7-1.3 2.7-.3 1-.4 2-.4 3.1h-6.7c.1-2 .5-3.9 1.1-5.6.7-1.7 1.6-3.2 2.7-4.4s2.6-2.2 4.2-2.9c1.6-.7 3.5-1.1 5.6-1.1 1.6 0 3.2.2 4.7.7 1.6.5 2.9 1.2 4.2 2.1 1.2.9 2.2 2.1 3 3.4.7 1.4 1.1 3 1.1 4.8 0 2.1-.5 3.9-1.4 5.4-.9 1.6-2.4 2.7-4.4 3.4v.1c2.4.5 4.2 1.6 5.5 3.5 1.3 1.9 2 4.1 2 6.8 0 2-.4 3.7-1.2 5.3-.8 1.6-1.8 2.9-3.2 3.9-1.3 1.1-2.9 1.9-4.7 2.5-1.8.6-3.6.9-5.6.9-2.4 0-4.5-.3-6.3-1s-3.3-1.7-4.5-2.9c-1.2-1.3-2.1-2.8-2.7-4.5-.6-1.8-1-3.7-1-5.9h6.7c-.1 2.5.5 4.6 1.9 6.3 1.3 1.7 3.3 2.5 5.9 2.5 2.2 0 4.1-.6 5.6-1.9 1.5-1.3 2.3-3.1 2.3-5.4 0-1.6-.3-2.9-.9-3.8-.6-.9-1.5-1.7-2.5-2.2-1-.5-2.2-.8-3.4-.9-1.3-.1-2.6-.2-3.9-.1v-5.2z"/></symbol><symbol id="trumbowyg-h4" viewBox="0 0 72 72"><path d="M1.5 14.9h7.4v16.7H28V14.9h7.4V57H28V38H8.9v19H1.5V14.9zM70.5 47.2h-5.3V57h-6.4v-9.8H41.2v-6.7l17.7-24.8h6.4v26.2h5.3v5.3zm-24.2-5.3h12.5V23.7h-.1L46.3 41.9z"/></symbol><symbol id="trumbowyg-horizontal-rule" viewBox="0 0 72 72"><path d="M9.1 32h54v8h-54z"/></symbol><symbol id="trumbowyg-insert-image" viewBox="0 0 72 72"><path d="M64 17v38H8V17h56m8-8H0v54h72V9z"/><path d="M17.5 22C15 22 13 24 13 26.5s2 4.5 4.5 4.5 4.5-2 4.5-4.5-2-4.5-4.5-4.5zM16 50h27L29.5 32zM36 36.2l8.9-8.5L60.2 50H45.9S35.6 35.9 36 36.2z"/></symbol><symbol id="trumbowyg-italic" viewBox="0 0 72 72"><path d="M26 57l10.1-42h7.2L33.2 57H26z"/></symbol><symbol id="trumbowyg-justify-center" viewBox="0 0 72 72"><path d="M9 14h54v8H9zM9 50h54v8H9zM18 32h36v8H18z"/></symbol><symbol id="trumbowyg-justify-full" viewBox="0 0 72 72"><path d="M9 14h54v8H9zM9 50h54v8H9zM9 32h54v8H9z"/></symbol><symbol id="trumbowyg-justify-left" viewBox="0 0 72 72"><path d="M9 14h54v8H9zM9 50h54v8H9zM9 32h36v8H9z"/></symbol><symbol id="trumbowyg-justify-right" viewBox="0 0 72 72"><path d="M9 14h54v8H9zM9 50h54v8H9zM27 32h36v8H27z"/></symbol><symbol id="trumbowyg-link" viewBox="0 0 72 72"><path d="M30.9 49.1l-6.7 6.7c-.8.8-1.6.9-2.1.9s-1.4-.1-2.1-.9l-5.2-5.2c-1.1-1.1-1.1-3.1 0-4.2l6.1-6.1.2-.2 6.5-6.5c-1.2-.6-2.5-.9-3.8-.9-2.3 0-4.6.9-6.3 2.6L10.8 42c-3.5 3.5-3.5 9.2 0 12.7l5.2 5.2c1.7 1.7 4 2.6 6.3 2.6s4.6-.9 6.3-2.6l6.7-6.7C38 50.5 38.6 46.3 37 43l-6.1 6.1zM38.5 22.7l6.7-6.7c.8-.8 1.6-.9 2.1-.9s1.4.1 2.1.9l5.2 5.2c1.1 1.1 1.1 3.1 0 4.2l-6.1 6.1-.2.2-6.5 6.5c1.2.6 2.5.9 3.8.9 2.3 0 4.6-.9 6.3-2.6l6.7-6.7c3.5-3.5 3.5-9.2 0-12.7l-5.2-5.2c-1.7-1.7-4-2.6-6.3-2.6s-4.6.9-6.3 2.6l-6.7 6.7c-2.7 2.7-3.3 6.9-1.7 10.2l6.1-6.1z"/><path d="M44.1 30.7c.2-.2.4-.6.4-.9 0-.3-.1-.6-.4-.9l-2.3-2.3c-.2-.2-.6-.4-.9-.4-.3 0-.6.1-.9.4L25.8 40.8c-.2.2-.4.6-.4.9 0 .3.1.6.4.9l2.3 2.3c.2.2.6.4.9.4.3 0 .6-.1.9-.4l14.2-14.2z"/></symbol><symbol id="trumbowyg-ordered-list" viewBox="0 0 72 72"><path d="M27 14h36v8H27zM27 50h36v8H27zM27 32h36v8H27zM11.8 15.8V22h1.8v-7.8h-1.5l-2.1 1 .3 1.3zM12.1 38.5l.7-.6c1.1-1 2.1-2.1 2.1-3.4 0-1.4-1-2.4-2.7-2.4-1.1 0-2 .4-2.6.8l.5 1.3c.4-.3 1-.6 1.7-.6.9 0 1.3.5 1.3 1.1 0 .9-.9 1.8-2.6 3.3l-1 .9V40H15v-1.5h-2.9zM13.3 53.9c1-.4 1.4-1 1.4-1.8 0-1.1-.9-1.9-2.6-1.9-1 0-1.9.3-2.4.6l.4 1.3c.3-.2 1-.5 1.6-.5.8 0 1.2.3 1.2.8 0 .7-.8.9-1.4.9h-.7v1.3h.7c.8 0 1.6.3 1.6 1.1 0 .6-.5 1-1.4 1-.7 0-1.5-.3-1.8-.5l-.4 1.4c.5.3 1.3.6 2.3.6 2 0 3.2-1 3.2-2.4 0-1.1-.8-1.8-1.7-1.9z"/></symbol><symbol id="trumbowyg-p" viewBox="0 0 72 72"><path d="M47.8 15.1H30.1c-4.7 0-8.5 3.7-8.5 8.4s3.7 8.4 8.4 8.4v25h7V19.8h3v37.1h4.1V19.8h3.7v-4.7z"/></symbol><symbol id="trumbowyg-redo" viewBox="0 0 72 72"><path d="M10.8 51.2c0-5.1 2.1-9.7 5.4-13.1 3.3-3.3 8-5.4 13.1-5.4H46v-12L61.3 36 45.9 51.3V39.1H29.3c-3.3 0-6.4 1.3-8.5 3.5-2.2 2.2-3.5 5.2-3.5 8.5h-6.5z"/></symbol><symbol id="trumbowyg-removeformat" viewBox="0 0 72 72"><path d="M58.2 54.6L52 48.5l3.6-3.6 6.1 6.1 6.4-6.4 3.8 3.8-6.4 6.4 6.1 6.1-3.6 3.6-6.1-6.1-6.4 6.4-3.7-3.8 6.4-6.4zM21.7 52.1H50V57H21.7zM18.8 15.2h34.1v6.4H39.5v24.2h-7.4V21.5H18.8v-6.3z"/></symbol><symbol id="trumbowyg-strikethrough" viewBox="0 0 72 72"><path d="M45.8 45c0 1-.3 1.9-.9 2.8-.6.9-1.6 1.6-3 2.1s-3.1.8-5 .8c-2.1 0-4-.4-5.7-1.1-1.7-.7-2.9-1.7-3.6-2.7-.8-1.1-1.3-2.6-1.5-4.5l-.1-.8-6.7.6v.9c.1 2.8.9 5.4 2.3 7.6 1.5 2.3 3.5 4 6.1 5.1 2.6 1.1 5.7 1.6 9.4 1.6 2.9 0 5.6-.5 8-1.6 2.4-1.1 4.3-2.7 5.6-4.7 1.3-2 2-4.2 2-6.5 0-1.6-.3-3.1-.9-4.5l-.2-.6H44c0 .1 1.8 2.3 1.8 5.5zM29 28.9c-.8-.8-1.2-1.7-1.2-2.9 0-.7.1-1.3.4-1.9.3-.6.7-1.1 1.4-1.6.6-.5 1.4-.9 2.5-1.1 1.1-.3 2.4-.4 3.9-.4 2.9 0 5 .6 6.3 1.7 1.3 1.1 2.1 2.7 2.4 5.1l.1.9 6.8-.5v-.9c-.1-2.5-.8-4.7-2.1-6.7s-3.2-3.5-5.6-4.5c-2.4-1-5.1-1.5-8.1-1.5-2.8 0-5.3.5-7.6 1.4-2.3 1-4.2 2.4-5.4 4.3-1.2 1.9-1.9 3.9-1.9 6.1 0 1.7.4 3.4 1.2 4.9l.3.5h11.8c-2.3-.9-3.9-1.7-5.2-2.9zm13.3-6.2zM22.7 20.3zM13 34.1h46.1v3.4H13z"/></symbol><symbol id="trumbowyg-strong" viewBox="0 0 72 72"><path d="M51.1 37.8c-1.1-1.4-2.5-2.5-4.2-3.3 1.2-.8 2.1-1.8 2.8-3 1-1.6 1.5-3.5 1.5-5.3 0-2-.6-4-1.7-5.8-1.1-1.8-2.8-3.2-4.8-4.1-2-.9-4.6-1.3-7.8-1.3h-16v42h16.3c2.6 0 4.8-.2 6.7-.7 1.9-.5 3.4-1.2 4.7-2.1 1.3-1 2.4-2.4 3.2-4.1.9-1.7 1.3-3.6 1.3-5.7.2-2.5-.5-4.7-2-6.6zM40.8 50.2c-.6.1-1.8.2-3.4.2h-9V38.5h8.3c2.5 0 4.4.2 5.6.6 1.2.4 2 1 2.7 2 .6.9 1 2 1 3.3 0 1.1-.2 2.1-.7 2.9-.5.9-1 1.5-1.7 1.9-.8.4-1.7.8-2.8 1zm2.6-20.4c-.5.7-1.3 1.3-2.5 1.6-.8.3-2.5.4-4.8.4h-7.7V21.6h7.1c1.4 0 2.6 0 3.6.1s1.7.2 2.2.4c1 .3 1.7.8 2.2 1.7.5.9.8 1.8.8 3-.1 1.3-.4 2.2-.9 3z"/></symbol><symbol id="trumbowyg-subscript" viewBox="0 0 72 72"><path d="M32 15h7.8L56 57.1h-7.9L44.3 46H27.4l-4 11.1h-7.6L32 15zm-2.5 25.4h12.9L36 22.3h-.2l-6.3 18.1zM58.7 59.9c.6-1.4 2-2.8 4.1-4.4 1.9-1.3 3.1-2.3 3.7-2.9.8-.9 1.3-1.9 1.3-3 0-.9-.2-1.6-.7-2.2-.5-.6-1.2-.9-2.1-.9-1.2 0-2.1.5-2.5 1.4-.3.5-.4 1.4-.5 2.5h-4c.1-1.8.4-3.2 1-4.3 1.1-2.1 3-3.1 5.8-3.1 2.2 0 3.9.6 5.2 1.8 1.3 1.2 1.9 2.8 1.9 4.8 0 1.5-.5 2.9-1.4 4.1-.6.8-1.6 1.7-3 2.6L66 57.7c-1 .7-1.7 1.2-2.1 1.6-.4.3-.7.7-1 1.1H72V64H57.8c0-1.5.3-2.8.9-4.1z"/></symbol><symbol id="trumbowyg-superscript" viewBox="0 0 72 72"><path d="M32 15h7.8L56 57.1h-7.9l-4-11.1H27.4l-4 11.1h-7.6L32 15zm-2.5 25.4h12.9L36 22.3h-.2l-6.3 18.1zM49.6 28.8c.5-1.1 1.6-2.3 3.4-3.6 1.5-1.1 2.5-1.9 3-2.4.7-.7 1-1.6 1-2.4 0-.7-.2-1.3-.6-1.8-.4-.5-1-.7-1.7-.7-1 0-1.7.4-2.1 1.1-.2.4-.3 1.1-.4 2.1H49c.1-1.5.3-2.6.8-3.5.9-1.7 2.5-2.6 4.8-2.6 1.8 0 3.2.5 4.3 1.5 1.1 1 1.6 2.3 1.6 4 0 1.3-.4 2.4-1.1 3.4-.5.7-1.3 1.4-2.4 2.2l-1.3 1c-.8.6-1.4 1-1.7 1.3-.3.3-.6.6-.8.9h7.4v3H48.8c0-1.3.3-2.4.8-3.5z"/></symbol><symbol id="trumbowyg-underline" viewBox="0 0 72 72"><path d="M36 35zM15.2 55.9h41.6V59H15.2zM21.1 13.9h6.4v21.2c0 1.2.1 2.5.2 3.7.1 1.3.5 2.4 1 3.4.6 1 1.4 1.8 2.6 2.5 1.1.6 2.7 1 4.8 1 2.1 0 3.7-.3 4.8-1 1.1-.6 2-1.5 2.6-2.5.6-1 .9-2.1 1-3.4.1-1.3.2-2.5.2-3.7V13.9H51v23.3c0 2.3-.4 4.4-1.1 6.1-.7 1.7-1.7 3.2-3 4.4-1.3 1.2-2.9 2-4.7 2.6-1.8.6-3.9.9-6.1.9-2.2 0-4.3-.3-6.1-.9-1.8-.6-3.4-1.5-4.7-2.6-1.3-1.2-2.3-2.6-3-4.4-.7-1.7-1.1-3.8-1.1-6.1V13.9z"/></symbol><symbol id="trumbowyg-undo" viewBox="0 0 72 72"><path d="M61.2 51.2c0-5.1-2.1-9.7-5.4-13.1-3.3-3.3-8-5.4-13.1-5.4H26.1v-12L10.8 36l15.3 15.3V39.1h16.7c3.3 0 6.4 1.3 8.5 3.5 2.2 2.2 3.5 5.2 3.5 8.5h6.4z"/></symbol><symbol id="trumbowyg-unlink" viewBox="0 0 72 72"><path d="M30.9 49.1l-6.7 6.7c-.8.8-1.6.9-2.1.9s-1.4-.1-2.1-.9l-5.2-5.2c-1.1-1.1-1.1-3.1 0-4.2l6.1-6.1.2-.2 6.5-6.5c-1.2-.6-2.5-.9-3.8-.9-2.3 0-4.6.9-6.3 2.6L10.8 42c-3.5 3.5-3.5 9.2 0 12.7l5.2 5.2c1.7 1.7 4 2.6 6.3 2.6s4.6-.9 6.3-2.6l6.7-6.7C38 50.5 38.6 46.3 37 43l-6.1 6.1zM38.5 22.7l6.7-6.7c.8-.8 1.6-.9 2.1-.9s1.4.1 2.1.9l5.2 5.2c1.1 1.1 1.1 3.1 0 4.2l-6.1 6.1-.2.2-6.5 6.5c1.2.6 2.5.9 3.8.9 2.3 0 4.6-.9 6.3-2.6l6.7-6.7c3.5-3.5 3.5-9.2 0-12.7l-5.2-5.2c-1.7-1.7-4-2.6-6.3-2.6s-4.6.9-6.3 2.6l-6.7 6.7c-2.7 2.7-3.3 6.9-1.7 10.2l6.1-6.1z"/><path d="M44.1 30.7c.2-.2.4-.6.4-.9 0-.3-.1-.6-.4-.9l-2.3-2.3c-.2-.2-.6-.4-.9-.4-.3 0-.6.1-.9.4L25.8 40.8c-.2.2-.4.6-.4.9 0 .3.1.6.4.9l2.3 2.3c.2.2.6.4.9.4.3 0 .6-.1.9-.4l14.2-14.2zM41.3 55.8v-5h22.2v5H41.3z"/></symbol><symbol id="trumbowyg-unordered-list" viewBox="0 0 72 72"><path d="M27 14h36v8H27zM27 50h36v8H27zM9 50h9v8H9zM9 32h9v8H9zM9 14h9v8H9zM27 32h36v8H27z"/></symbol><symbol id="trumbowyg-view-html" viewBox="0 0 72 72"><path fill="none" stroke="currentColor" stroke-width="8" stroke-miterlimit="10" d="M26.9 17.9L9 36.2 26.9 54M45 54l17.9-18.3L45 17.9"/></symbol><symbol id="trumbowyg-base64" viewBox="0 0 72 72"><path d="M64 17v38H8V17h56m8-8H0v54h72V9z"/><path d="M29.9 28.9c-.5-.5-1.1-.8-1.8-.8s-1.4.2-1.9.7c-.5.4-.9 1-1.2 1.6-.3.6-.5 1.3-.6 2.1-.1.7-.2 1.4-.2 1.9l.1.1c.6-.8 1.2-1.4 2-1.8.8-.4 1.7-.5 2.7-.5.9 0 1.8.2 2.6.6.8.4 1.6.9 2.2 1.5.6.6 1 1.3 1.2 2.2.3.8.4 1.6.4 2.5 0 1.1-.2 2.1-.5 3-.3.9-.8 1.7-1.5 2.4-.6.7-1.4 1.2-2.3 1.6-.9.4-1.9.6-3 .6-1.6 0-2.8-.3-3.9-.9-1-.6-1.8-1.4-2.5-2.4-.6-1-1-2.1-1.3-3.4-.2-1.3-.4-2.6-.4-3.9 0-1.3.1-2.6.4-3.8.3-1.3.8-2.4 1.4-3.5.7-1 1.5-1.9 2.5-2.5 1-.6 2.3-1 3.8-1 .9 0 1.7.1 2.5.4.8.3 1.4.6 2 1.1.6.5 1.1 1.1 1.4 1.8.4.7.6 1.5.7 2.5h-4c0-1-.3-1.6-.8-2.1zm-3.5 6.8c-.4.2-.8.5-1 .8-.3.4-.5.8-.6 1.2-.1.5-.2 1-.2 1.5s.1.9.2 1.4c.1.5.4.9.6 1.2.3.4.6.7 1 .9.4.2.9.3 1.4.3.5 0 1-.1 1.3-.3.4-.2.7-.5 1-.9.3-.4.5-.8.6-1.2.1-.5.2-.9.2-1.4 0-.5-.1-1-.2-1.4-.1-.5-.3-.9-.6-1.2-.3-.4-.6-.7-1-.9-.4-.2-.9-.3-1.4-.3-.4 0-.9.1-1.3.3zM36.3 41.3v-3.8l9-12.1H49v12.4h2.7v3.5H49v4.8h-4v-4.8h-8.7zM45 30.7l-5.3 7.2h5.4l-.1-7.2z"/></symbol><symbol id="trumbowyg-back-color" viewBox="0 0 72 72"><path d="M36.5 22.3l-6.3 18.1H43l-6.3-18.1z"/><path d="M9 8.9v54.2h54.1V8.9H9zm39.9 48.2L45 46H28.2l-3.9 11.1h-7.6L32.8 15h7.8l16.2 42.1h-7.9z"/></symbol><symbol id="trumbowyg-fore-color" viewBox="0 0 72 72"><path d="M32 15h7.8L56 57.1h-7.9l-4-11.1H27.4l-4 11.1h-7.6L32 15zm-2.5 25.4h12.9L36 22.3h-.2l-6.3 18.1z"/></symbol><symbol id="trumbowyg-noembed" viewBox="0 0 72 72"><path d="M31.5 33.6V25l11 11-11 11v-8.8z"/><path d="M64 17v38H8V17h56m8-8H0v54h72V9z"/></symbol><symbol id="trumbowyg-preformatted" viewBox="0 0 72 72"><path d="M10.3 33.5c.4 0 .9-.1 1.5-.2s1.2-.3 1.8-.7c.6-.3 1.1-.8 1.5-1.3.4-.5.6-1.3.6-2.1V17.1c0-1.4.3-2.6.8-3.6s1.2-1.9 2-2.5c.8-.7 1.6-1.2 2.5-1.5.9-.3 1.6-.5 2.2-.5h5.3v5.3h-3.2c-.7 0-1.3.1-1.8.4-.4.3-.8.6-1 1-.2.4-.4.9-.4 1.3-.1.5-.1.9-.1 1.4v11.4c0 1.2-.2 2.1-.7 2.9-.5.8-1 1.4-1.7 1.8-.6.4-1.3.8-2 1-.7.2-1.3.3-1.7.4v.1c.5 0 1 .1 1.7.3.7.2 1.3.5 2 .9.6.5 1.2 1.1 1.7 1.9.5.8.7 2 .7 3.4v11.1c0 .4 0 .9.1 1.4.1.5.2.9.4 1.3s.6.7 1 1c.4.3 1 .4 1.8.4h3.2V63h-5.3c-.6 0-1.4-.2-2.2-.5-.9-.3-1.7-.8-2.5-1.5s-1.4-1.5-2-2.5c-.5-1-.8-2.2-.8-3.6V43.5c0-.9-.2-1.7-.6-2.3-.4-.6-.9-1.1-1.5-1.5-.6-.4-1.2-.6-1.8-.7-.6-.1-1.1-.2-1.5-.2v-5.3zM61.8 38.7c-.4 0-1 .1-1.6.2-.6.1-1.2.4-1.8.7-.6.3-1.1.7-1.5 1.3-.4.5-.6 1.3-.6 2.1v12.1c0 1.4-.3 2.6-.8 3.6s-1.2 1.9-2 2.5c-.8.7-1.6 1.2-2.5 1.5-.9.3-1.6.5-2.2.5h-5.3v-5.3h3.2c.7 0 1.3-.1 1.8-.4.4-.3.8-.6 1-1 .2-.4.4-.9.4-1.3.1-.5.1-.9.1-1.4V42.3c0-1.2.2-2.1.7-2.9.5-.8 1-1.4 1.7-1.8.6-.4 1.3-.8 2-1 .7-.2 1.3-.3 1.7-.4v-.1c-.5 0-1-.1-1.7-.3-.7-.2-1.3-.5-2-.9-.6-.4-1.2-1.1-1.7-1.9-.5-.8-.7-2-.7-3.4V18.5c0-.4 0-.9-.1-1.4-.1-.5-.2-.9-.4-1.3s-.6-.7-1-1c-.4-.3-1-.4-1.8-.4h-3.2V9.1h5.3c.6 0 1.4.2 2.2.5.9.3 1.7.8 2.5 1.5s1.4 1.5 2 2.5c.5 1 .8 2.2.8 3.6v11.6c0 .9.2 1.7.6 2.3.4.6.9 1.1 1.5 1.5.6.4 1.2.6 1.8.7.6.1 1.2.2 1.6.2v5.2z"/></symbol>
<symbol id="trumbowyg-uploada" viewBox="0 0 487.85 487.85"><path d="M421.985,229.833L217.847,25.981c-7.235-7.238-16.94-13.374-29.121-18.416C176.541,2.522,165.407,0,155.318,0H36.547
		C26.648,0,18.083,3.619,10.85,10.848C3.617,18.081,0.002,26.646,0.002,36.545v118.771c0,10.088,2.519,21.219,7.564,33.404
		s11.182,21.792,18.417,28.837L230.118,421.98c7.043,7.043,15.602,10.564,25.697,10.564c9.89,0,18.558-3.521,25.98-10.564
		l140.186-140.47c7.043-7.046,10.561-15.604,10.561-25.693C432.542,245.919,429.024,237.258,421.985,229.833z M117.202,117.201
		c-7.142,7.138-15.752,10.709-25.841,10.709c-10.085,0-18.699-3.571-25.837-10.709c-7.138-7.139-10.706-15.749-10.706-25.837
		c0-10.089,3.568-18.702,10.706-25.837c7.139-7.139,15.752-10.71,25.837-10.71c10.089,0,18.702,3.571,25.841,10.71
		c7.135,7.135,10.706,15.749,10.706,25.837C127.908,101.452,124.341,110.062,117.202,117.201z"/></symbol>
		<symbol id="trumbowyg-uploadb" viewBox="0 0 512 512"><g>
	<g>
		<path d="M236.069,356.91c-1.859-1.87-4.439-2.93-7.069-2.93s-5.21,1.06-7.07,2.93c-1.86,1.86-2.93,4.43-2.93,7.07
			c0,2.63,1.069,5.21,2.93,7.07c1.86,1.86,4.44,2.93,7.07,2.93s5.21-1.07,7.069-2.93c1.86-1.86,2.931-4.44,2.931-7.07
			S237.93,358.77,236.069,356.91z"/>
	</g>
</g>
<g>
	<g>
		<path d="M448,268.01c-5.522,0-10,4.477-10,10v43.979H266v-24.683c0-38.026-28.594-69.478-65.405-74.04
			c7.275-8.978,11.646-20.401,11.646-32.831v-70.35c0-5.523-4.478-10-10-10h-52.322c-23.246,0-42.158,18.912-42.158,42.158v38.192
			c0,12.429,4.37,23.852,11.646,32.831C82.594,227.829,54,259.281,54,297.307v24.683H20V81.744c0-4.276,3.501-7.754,7.805-7.754
			h207.862c5.522,0,10-4.477,10-10s-4.478-10-10-10H27.805C12.474,53.99,0,66.44,0,81.744v296.492
			c0,15.304,12.474,27.754,27.805,27.754H179.98v46.194C154.753,454.739,135,476.101,135,501.99c0,5.523,4.478,10,10,10h168
			c5.522,0,10-4.477,10-10c0-25.888-19.753-47.25-44.979-49.806V405.99h152.175c15.331,0,27.805-12.45,27.805-27.754V278.01
			C458,272.488,453.522,268.01,448,268.01z M127.76,152.245c0-12.218,9.94-22.158,22.158-22.158h42.322v15.966
			c0,7.932-6.453,14.385-14.386,14.385H127.76V152.245z M127.76,180.438h50.095c5.135,0,10.006-1.139,14.386-3.166v13.165h-0.001
			c0,17.777-14.463,32.24-32.24,32.24c-17.777,0-32.24-14.463-32.24-32.24V180.438z M171.669,242.677L160,254.346l-11.669-11.669
			H171.669z M74,297.307c0-27.407,20.29-50.159,46.636-54.04l32.292,32.292c1.953,1.953,4.512,2.929,7.071,2.929
			s5.118-0.976,7.071-2.929l32.292-32.292C225.71,247.148,246,269.9,246,297.307v24.683H74V297.307z M301.289,491.99h-144.58
			c4.13-11.676,15.279-20.063,28.353-20.063h4.918h78.041h4.916C286.01,471.927,297.159,480.313,301.289,491.99z M199.98,451.927
			V405.99h58.041v45.937H199.98z M438,378.236c0,4.275-3.501,7.754-7.805,7.754H27.805c-4.304,0-7.805-3.479-7.805-7.754V341.99h418
			V378.236z"/>
	</g>
</g>
<g>
	<g>
		<path d="M455.069,233.27c-1.859-1.86-4.439-2.93-7.069-2.93s-5.21,1.07-7.07,2.93c-1.86,1.87-2.93,4.44-2.93,7.07
			c0,2.64,1.069,5.21,2.93,7.07c1.86,1.87,4.44,2.93,7.07,2.93s5.21-1.06,7.069-2.93c1.86-1.86,2.931-4.43,2.931-7.07
			C458,237.71,456.93,235.13,455.069,233.27z"/>
	</g>
</g>
<g>
	<g>
		<path d="M448,47.01h-75c-5.522,0-10,4.477-10,10s4.478,10,10,10h75c5.522,0,10-4.477,10-10S453.522,47.01,448,47.01z"/>
	</g>
</g>
<g>
	<g>
		<path d="M339.069,49.94c-1.859-1.86-4.439-2.93-7.069-2.93s-5.21,1.07-7.07,2.93c-1.86,1.86-2.93,4.44-2.93,7.07
			s1.069,5.21,2.93,7.07c1.861,1.86,4.44,2.93,7.07,2.93s5.21-1.07,7.069-2.93c1.86-1.86,2.931-4.44,2.931-7.07
			S340.93,51.8,339.069,49.94z"/>
	</g>
</g>
<g>
	<g>
		<path d="M448,91.01H332c-5.522,0-10,4.477-10,10s4.478,10,10,10h116c5.522,0,10-4.477,10-10S453.522,91.01,448,91.01z"/>
	</g>
</g>
<g>
	<g>
		<path d="M448,135.01H332c-5.522,0-10,4.477-10,10c0,5.523,4.478,10,10,10h116c5.522,0,10-4.477,10-10
			C458,139.487,453.522,135.01,448,135.01z"/>
	</g>
</g>
<g>
	<g>
		<path d="M462,0.01H318c-27.57,0-50,22.43-50,50v107c0,25.655,19.42,46.859,44.333,49.681v25.985c0,4.044,2.437,7.691,6.173,9.239
			c1.237,0.513,2.537,0.762,3.825,0.762c2.603,0,5.16-1.017,7.073-2.929l32.737-32.738H462c27.57,0,50-22.43,50-50v-107
			C512,22.44,489.57,0.01,462,0.01z M492,157.01c0,16.542-13.458,30-30,30H358c-2.652,0-5.195,1.054-7.071,2.929l-18.596,18.596
			V197.01c0-5.523-4.478-10-10-10H318c-16.542,0-30-13.458-30-30v-107c0-16.542,13.458-30,30-30h144c16.542,0,30,13.458,30,30
			V157.01z"/>
	</g>
</g></symbol>
<symbol id="trumbowyg-uploadc" viewBox="0 0 487.85 487.85"><path d="M438.931,30.403c-40.4-40.5-106.1-40.5-146.5,0l-268.6,268.5c-2.1,2.1-3.4,4.8-3.8,7.7l-19.9,147.4
		c-0.6,4.2,0.9,8.4,3.8,11.3c2.5,2.5,6,4,9.5,4c0.6,0,1.2,0,1.8-0.1l88.8-12c7.4-1,12.6-7.8,11.6-15.2c-1-7.4-7.8-12.6-15.2-11.6
		l-71.2,9.6l13.9-102.8l108.2,108.2c2.5,2.5,6,4,9.5,4s7-1.4,9.5-4l268.6-268.5c19.6-19.6,30.4-45.6,30.4-73.3
		S458.531,49.903,438.931,30.403z M297.631,63.403l45.1,45.1l-245.1,245.1l-45.1-45.1L297.631,63.403z M160.931,416.803l-44.1-44.1
		l245.1-245.1l44.1,44.1L160.931,416.803z M424.831,152.403l-107.9-107.9c13.7-11.3,30.8-17.5,48.8-17.5c20.5,0,39.7,8,54.2,22.4
		s22.4,33.7,22.4,54.2C442.331,121.703,436.131,138.703,424.831,152.403z"/></symbol>
		
		<symbol id="trumbowyg-uploadd" viewBox="0 0 31.312 31.312"><g>
	<g>
		<g>
	<g>
		<rect x="23.695" y="15.25" width="5.052" height="1.878"/>
		<polygon points="2.931,0.463 2.931,3.416 4.22,3.018 4.22,1.753 30.021,1.753 30.021,18.201 9.49,18.201 9.423,19.49 
			31.312,19.49 31.312,0.463 		"/>
		<circle cx="4.983" cy="7.526" r="3.821"/>
		<polygon points="8.227,29.105 8.227,22.302 8.227,21.661 8.227,20.791 8.47,20.791 8.825,13.886 15.415,10.471 14.861,9.403 
			15.022,9.683 22.083,5.641 21.764,5.081 14.713,9.117 14.549,8.8 8.524,11.922 6.374,11.922 4.917,13.611 3.507,11.922 
			0.411,12.497 0.213,19.365 1.526,19.365 1.597,20.791 1.796,20.791 1.796,21.661 1.796,22.302 1.796,29.105 1.533,29.105 
			0,29.438 0,30.85 1.305,30.85 2.829,30.602 2.843,30.85 4.531,30.85 4.531,29.275 4.531,29.105 4.531,22.302 5.492,22.302 
			5.492,29.105 5.492,29.275 5.492,30.85 7.18,30.85 7.194,30.602 8.718,30.85 10.023,30.85 10.023,29.438 8.489,29.105 		"/>
	</g>
</g>
	</g>
</g></symbol>
<symbol id="trumbowyg-uploade" viewBox="0 0 422.692 422.692"><g>
	<g>
		<path d="M271.786,289.626v-7.36c2.08-1.68,4.08-3.52,6-5.44c15.373-16.927,25.053-38.246,27.68-60.96
			c13.816-2.105,26.269-9.509,34.72-20.64c11.6-16.4,12.64-40,2.96-69.6c-0.569-1.707-1.696-3.173-3.2-4.16l-4.4-2.96
			c0.649-26.708-8.581-52.716-25.92-73.04c-21.52-24.24-54.56-36.48-98.32-36.64c-43.68,0-76.8,12.4-98.32,36.32
			c-17.339,20.324-26.569,46.332-25.92,73.04l-4.4,2.96c-1.504,0.987-2.631,2.453-3.2,4.16c-9.68,29.76-8.64,53.2,2.96,69.6
			c8.419,11.209,20.872,18.698,34.72,20.88c2.638,22.75,12.348,44.099,27.76,61.04c1.905,1.916,3.907,3.732,6,5.44v7.36
			c-30.64,5.92-152.96,34.64-150.88,116.24c0,4.418,3.582,8,8,8h406.64c4.418,0,8-3.582,8-8
			C424.746,324.266,302.426,295.546,271.786,289.626z M112.346,197.946c-6.798-2.283-12.723-6.614-16.96-12.4l0.4,0.08
			c-8-11.68-8.72-29.36-1.6-52.72l5.84-3.92c2.457-1.64,3.81-4.5,3.52-7.44c-1.346-23.91,6.431-47.441,21.76-65.84
			c18.08-20.48,47.12-30.72,86-30.88c38.88-0.16,67.92,10.4,86.32,30.88c15.329,18.399,23.106,41.93,21.76,65.84
			c-0.29,2.94,1.063,5.8,3.52,7.44l5.84,3.92c7.12,23.28,6.64,41.04-1.6,52.72c-4.266,5.791-10.217,10.122-17.04,12.4
			c9.65-10.98,14.365-25.442,13.04-40c-1.499-8.759-6.065-16.698-12.88-22.4c-3.44-80-59.52-88.96-83.68-88.96
			c-5.114-0.015-10.222,0.36-15.28,1.12c-5.057-0.761-10.166-1.135-15.28-1.12c-24,0-80,8.8-83.68,88.96
			c-6.859,5.656-11.481,13.568-13.04,22.32C97.972,172.505,102.688,186.971,112.346,197.946z M294.346,132.346
			c-33.569,1.94-66.928-6.435-95.6-24c-3.245-2.279-7.67-1.836-10.4,1.04c-16,17.2-45.2,21.2-59.28,22.08
			c4.32-56.56,38.56-68.88,67.36-68.88c4.584-0.033,9.162,0.342,13.68,1.12c1.056,0.216,2.144,0.216,3.2,0
			c4.518-0.776,9.096-1.151,13.68-1.12c28.56,0,62.96,12.64,66.96,69.68L294.346,132.346z M131.866,199.466l0.32,0.08
			c0.017-1.972-0.695-3.881-2-5.36c-10.96-12.56-16-24-14.64-33.44c0.652-5.258,3.249-10.081,7.28-13.52c10.56,0,48-2,72-22.72
			c27.029,15.539,57.623,23.808,88.8,24c5.36,0,10.8,0,16.48-0.88c3.921,3.348,6.482,8.014,7.2,13.12
			c1.36,9.28-3.68,20.88-14.64,33.44c-1.305,1.479-2.017,3.388-2,5.36c0,0,0,1.6,0,4.16l-46.56,24.96
			c-9.24-8.748-23.823-8.349-32.571,0.891c-8.748,9.24-8.349,23.823,0.891,32.571c9.24,8.748,23.823,8.349,32.571-0.891
			c4.054-4.282,6.312-9.955,6.309-15.851c0.036-0.72,0.036-1.44,0-2.16l36.72-19.68c-3.152,15.775-10.567,30.384-21.44,42.24
			c-14.182,13.654-33.379,20.835-53.04,19.84h-4c-19.619,0.974-38.774-6.172-52.96-19.76
			C131.306,240.666,131.866,199.866,131.866,199.466z M235.306,245.386c0,3.932-3.188,7.12-7.12,7.12c-3.932,0-7.12-3.188-7.12-7.12
			c0-3.932,3.188-7.12,7.12-7.12S235.306,241.454,235.306,245.386z M203.306,397.386H16.266c6.32-60.08,104-85.2,134.56-91.68v14.32
			c0,18.16,22.08,32,52.48,34.32V397.386z M166.826,320.026v-0.24v-27.36c13.298,6.167,27.824,9.231,42.48,8.96h4
			c14.656,0.271,29.182-2.793,42.48-8.96v27.6c0,7.6-17.36,18.56-44.48,18.56S166.826,327.626,166.826,320.026z M219.306,397.626
			v-43.36c30.4-2.08,52.48-16,52.48-34.32v-14c30.8,6.4,128,31.52,134.56,91.68H219.306z"/>
	</g>
</g></symbol>

<symbol id="trumbowyg-uploadf" viewBox="0 0 60 60">
	<g>
	<circle cx="30" cy="26" r="1"/>
	<circle cx="33" cy="24" r="1"/>
	<circle cx="27" cy="24" r="1"/>
	<circle cx="24" cy="22" r="1"/>
	<circle cx="36" cy="22" r="1"/>
	<circle cx="39" cy="20" r="1"/>
	<circle cx="21" cy="20" r="1"/>
	<circle cx="30" cy="22" r="1"/>
	<circle cx="30" cy="34" r="1"/>
	<circle cx="30" cy="37" r="1"/>
	<circle cx="30" cy="40" r="1"/>
	<circle cx="30" cy="43" r="1"/>
	<circle cx="30" cy="46" r="1"/>
	<circle cx="30" cy="49" r="1"/>
	<path d="M54,58h-3v-4h-5V43.778c0-2.7-1.342-5.208-3.589-6.706L31.803,30l10.608-7.072C44.658,21.43,46,18.922,46,16.222V6h5V2h3
		c0.552,0,1-0.447,1-1s-0.448-1-1-1h-3h-1H10H9H6C5.448,0,5,0.447,5,1s0.448,1,1,1h3v4h5v10.222c0,2.7,1.342,5.208,3.589,6.706
		L28.197,30l-10.608,7.072C15.342,38.57,14,41.078,14,43.778V54H9v4H6c-0.552,0-1,0.447-1,1s0.448,1,1,1h3h1h40h1h3
		c0.552,0,1-0.447,1-1S54.552,58,54,58z M11,4V2h38v2h-3H14H11z M18.698,21.264C17.009,20.137,16,18.252,16,16.222V6h28v10.222
		c0,2.03-1.009,3.915-2.698,5.042L30,28.798L18.698,21.264z M16,43.778c0-2.03,1.009-3.915,2.698-5.042L30,31.202l11.302,7.534
		C42.991,39.863,44,41.748,44,43.778V54H16V43.778z M11,56h3h32h3v2H11V56z"/>
</g></symbol>
<symbol id="trumbowyg-uploadg" viewBox="0 0 60 60">
	<g>
	<path d="M57,4h-7V1c0-0.553-0.447-1-1-1h-7c-0.553,0-1,0.447-1,1v3H19V1c0-0.553-0.447-1-1-1h-7c-0.553,0-1,0.447-1,1v3H3
		C2.447,4,2,4.447,2,5v11v43c0,0.553,0.447,1,1,1h54c0.553,0,1-0.447,1-1V16V5C58,4.447,57.553,4,57,4z M43,2h5v3v3h-5V5V2z M12,2h5
		v3v3h-5V5V2z M4,6h6v3c0,0.553,0.447,1,1,1h7c0.553,0,1-0.447,1-1V6h22v3c0,0.553,0.447,1,1,1h7c0.553,0,1-0.447,1-1V6h6v9H4V6z
		 M4,58V17h52v41H4z"/>
	<path d="M38,23h-7h-2h-7h-2h-9v9v2v7v2v9h9h2h7h2h7h2h9v-9v-2v-7v-2v-9h-9H38z M31,25h7v7h-7V25z M38,41h-7v-7h7V41z M22,34h7v7h-7
		V34z M22,25h7v7h-7V25z M13,25h7v7h-7V25z M13,34h7v7h-7V34z M20,50h-7v-7h7V50z M29,50h-7v-7h7V50z M38,50h-7v-7h7V50z M47,50h-7
		v-7h7V50z M47,41h-7v-7h7V41z M47,25v7h-7v-7H47z"/>
</g></symbol>
<symbol id="trumbowyg-uploadh" viewBox="0 0 372.96 372.96">
	<g>
	<g>
		<path d="M186.48,0C83.49,0,0,83.49,0,186.48s83.49,186.48,186.48,186.48s186.48-83.49,186.48-186.48
			C372.828,83.545,289.415,0.132,186.48,0z M194.48,356.56v-32.8c0-4.418-3.582-8-8-8s-8,3.582-8,8v32.8
			C90.759,352.372,20.588,282.201,16.4,194.48h32.8c4.418,0,8-3.582,8-8s-3.582-8-8-8H16.4C20.588,90.759,90.759,20.588,178.48,16.4
			v32.8c0,4.418,3.582,8,8,8s8-3.582,8-8V16.4c87.721,4.188,157.892,74.359,162.08,162.08h-32.8c-4.418,0-8,3.582-8,8s3.582,8,8,8
			h0.08h32.8C352.449,282.23,282.232,352.412,194.48,356.56z"/>
	</g>
</g>
<g>
	<g>
		<path d="M270.88,260.88l-76.4-77.68v-80.72c0-4.418-3.582-8-8-8s-8,3.582-8,8v84c0.009,2.099,0.842,4.11,2.32,5.6l78.64,80
			c3.093,3.159,8.161,3.213,11.32,0.12C273.919,269.107,273.973,264.039,270.88,260.88z"/>
	</g>
</g></symbol>
<symbol id="trumbowyg-uploadi" viewBox="0 0 54.971 54.971">
	<g>
	<path d="M51.173,3.801c-5.068-5.068-13.315-5.066-18.384,0l-9.192,9.192c-0.781,0.781-0.781,2.047,0,2.828
		c0.781,0.781,2.047,0.781,2.828,0l9.192-9.192c1.691-1.69,3.951-2.622,6.363-2.622c2.413,0,4.673,0.932,6.364,2.623
		s2.623,3.951,2.623,6.364c0,2.412-0.932,4.672-2.623,6.363L36.325,31.379c-3.51,3.508-9.219,3.508-12.729,0
		c-0.781-0.781-2.047-0.781-2.828,0s-0.781,2.048,0,2.828c2.534,2.534,5.863,3.801,9.192,3.801s6.658-1.267,9.192-3.801
		l12.021-12.021c2.447-2.446,3.795-5.711,3.795-9.192C54.968,9.512,53.62,6.248,51.173,3.801z"/>
	<path d="M27.132,40.57l-7.778,7.778c-1.691,1.691-3.951,2.623-6.364,2.623c-2.412,0-4.673-0.932-6.364-2.623
		c-3.509-3.509-3.509-9.219,0-12.728L17.94,24.306c1.691-1.69,3.951-2.622,6.364-2.622c2.412,0,4.672,0.932,6.363,2.622
		c0.781,0.781,2.047,0.781,2.828,0s0.781-2.047,0-2.828c-5.067-5.067-13.314-5.068-18.384,0L3.797,32.793
		c-2.446,2.446-3.794,5.711-3.794,9.192c0,3.48,1.348,6.745,3.795,9.191c2.446,2.447,5.711,3.795,9.191,3.795
		c3.481,0,6.746-1.348,9.192-3.795l7.778-7.778c0.781-0.781,0.781-2.047,0-2.828S27.913,39.789,27.132,40.57z"/>
</g></symbol>
<symbol id="trumbowyg-uploadj" viewBox="0 0 512 512">
	<g>
	<g>
		<path d="M334.974,0c-95.419,0-173.049,77.63-173.049,173.049c0,21.213,3.769,41.827,11.211,61.403L7.672,399.928
			c-2.365,2.366-3.694,5.573-3.694,8.917v90.544c0,6.965,5.646,12.611,12.611,12.611h74.616c3.341,0,6.545-1.325,8.91-3.686
			l25.145-25.107c2.37-2.366,3.701-5.577,3.701-8.925v-30.876h30.837c6.965,0,12.611-5.646,12.611-12.611v-12.36h12.361
			c6.964,0,12.611-5.646,12.611-12.611v-27.136h27.136c3.344,0,6.551-1.329,8.917-3.694l40.121-40.121
			c19.579,7.449,40.196,11.223,61.417,11.223c95.419,0,173.049-77.63,173.049-173.049C508.022,77.63,430.393,0,334.974,0z
			 M334.974,320.874c-20.642,0-40.606-4.169-59.339-12.393c-4.844-2.126-10.299-0.956-13.871,2.525
			c-0.039,0.037-0.077,0.067-0.115,0.106l-42.354,42.354h-34.523c-6.965,0-12.611,5.646-12.611,12.611v27.136H159.8
			c-6.964,0-12.611,5.646-12.611,12.611v12.36h-30.838c-6.964,0-12.611,5.646-12.611,12.611v38.257l-17.753,17.725H29.202v-17.821
			l154.141-154.14c4.433-4.433,4.433-11.619,0-16.051s-11.617-4.434-16.053,0L29.202,436.854V414.07l167.696-167.708
			c0.038-0.038,0.067-0.073,0.102-0.11c3.482-3.569,4.656-9.024,2.53-13.872c-8.216-18.732-12.38-38.695-12.38-59.33
			c0-81.512,66.315-147.827,147.827-147.827S482.802,91.537,482.802,173.05C482.8,254.56,416.484,320.874,334.974,320.874z"/>
	</g>
</g>
<g>
	<g>
		<path d="M387.638,73.144c-26.047,0-47.237,21.19-47.237,47.237s21.19,47.237,47.237,47.237s47.237-21.19,47.237-47.237
			S413.686,73.144,387.638,73.144z M387.638,142.396c-12.139,0-22.015-9.876-22.015-22.015s9.876-22.015,22.015-22.015
			s22.015,9.876,22.015,22.015S399.777,142.396,387.638,142.396z"/>
	</g>
</g></symbol>
</svg>